<?xml version="1.0" encoding="UTF-8" standalone="no"?> <svg width="512" height="512" viewBox="0 0 512 512" fill="none" xmlns="http://www.w3.org/2000/svg">
<path d="M256 277.333C239.123 277.333 222.624 272.328 208.592 262.952C194.559 253.575 183.621 240.248 177.163 224.656C170.704 209.063 169.014 191.905 172.307 175.352C175.599 158.799 183.726 143.595 195.66 131.66C207.595 119.726 222.799 111.599 239.352 108.307C255.905 105.014 273.063 106.704 288.656 113.163C304.248 119.621 317.575 130.559 326.952 144.592C336.328 158.624 341.333 175.123 341.333 192C341.307 214.624 332.308 236.314 316.311 252.311C300.313 268.308 278.624 277.307 256 277.333V277.333ZM256 149.333C247.561 149.333 239.312 151.835 232.296 156.524C225.279 161.212 219.81 167.876 216.581 175.672C213.351 183.468 212.507 192.047 214.153 200.324C215.799 208.601 219.863 216.203 225.83 222.17C231.797 228.137 239.4 232.201 247.676 233.847C255.953 235.494 264.532 234.649 272.328 231.419C280.124 228.19 286.788 222.721 291.476 215.705C296.165 208.688 298.667 200.439 298.667 192C298.654 180.688 294.155 169.843 286.156 161.844C278.157 153.845 267.312 149.346 256 149.333V149.333Z" />
<path d="M256 501.333C252.167 501.333 248.406 500.301 245.11 498.345C241.814 496.388 239.106 493.58 237.271 490.216C215.195 449.742 189.115 418.531 163.893 388.349C118.008 333.438 74.667 281.57 74.667 192C74.667 92.013 156.013 10.667 256 10.667C355.987 10.667 437.333 92.013 437.333 192C437.333 281.57 393.992 333.438 348.106 388.349C322.885 418.531 296.806 449.742 274.728 490.216C272.893 493.58 270.185 496.388 266.889 498.344C263.594 500.301 259.832 501.333 256 501.333V501.333ZM256 53.333C179.539 53.333 117.333 115.539 117.333 192C117.333 266.091 152.328 307.971 196.633 360.99C215.643 383.74 236.555 408.766 255.998 438.532C275.441 408.766 296.352 383.74 315.363 360.99C359.67 307.972 394.663 266.09 394.663 192C394.667 115.539 332.461 53.333 256 53.333V53.333Z"/>
</svg>
